<svg xmlns="http://www.w3.org/2000/svg" viewBox="0 0 32 32" shape-rendering="crispEdges"><rect x="0" y="0" width="3" height="1" fill="#141a38"/><rect x="3" y="0" width="1" height="1" fill="#ffffff"/><rect x="4" y="0" width="9" height="1" fill="#141a38"/><rect x="13" y="0" width="1" height="1" fill="#ffffff"/><rect x="14" y="0" width="12" height="1" fill="#141a38"/><rect x="26" y="0" width="3" height="1" fill="#ffe9a8"/><rect x="29" y="0" width="3" height="1" fill="#141a38"/><rect x="0" y="1" width="2" height="1" fill="#141a38"/><rect x="2" y="1" width="1" height="1" fill="#183060"/><rect x="3" y="1" width="17" height="1" fill="#141a38"/><rect x="20" y="1" width="1" height="1" fill="#ffffff"/><rect x="21" y="1" width="4" height="1" fill="#141a38"/><rect x="25" y="1" width="4" height="1" fill="#ffe9a8"/><rect x="29" y="1" width="1" height="1" fill="#183060"/><rect x="30" y="1" width="2" height="1" fill="#141a38"/><rect x="0" y="2" width="2" height="1" fill="#141a38"/><rect x="2" y="2" width="2" height="1" fill="#183060"/><rect x="4" y="2" width="5" height="1" fill="#141a38"/><rect x="9" y="2" width="1" height="1" fill="#ffffff"/><rect x="10" y="2" width="15" height="1" fill="#141a38"/><rect x="25" y="2" width="3" height="1" fill="#ffe9a8"/><rect x="28" y="2" width="2" height="1" fill="#183060"/><rect x="30" y="2" width="2" height="1" fill="#141a38"/><rect x="0" y="3" width="2" height="1" fill="#141a38"/><rect x="2" y="3" width="1" height="1" fill="#183060"/><rect x="3" y="3" width="1" height="1" fill="#78a8f0"/><rect x="4" y="3" width="1" height="1" fill="#183060"/><rect x="5" y="3" width="20" height="1" fill="#141a38"/><rect x="25" y="3" width="2" height="1" fill="#ffe9a8"/><rect x="27" y="3" width="1" height="1" fill="#183060"/><rect x="28" y="3" width="1" height="1" fill="#78a8f0"/><rect x="29" y="3" width="1" height="1" fill="#183060"/><rect x="30" y="3" width="2" height="1" fill="#141a38"/><rect x="0" y="4" width="2" height="1" fill="#141a38"/><rect x="2" y="4" width="1" height="1" fill="#183060"/><rect x="3" y="4" width="1" height="1" fill="#78a8f0"/><rect x="4" y="4" width="1" height="1" fill="#f0a8d8"/><rect x="5" y="4" width="1" height="1" fill="#183060"/><rect x="6" y="4" width="20" height="1" fill="#141a38"/><rect x="26" y="4" width="1" height="1" fill="#183060"/><rect x="27" y="4" width="1" height="1" fill="#f0a8d8"/><rect x="28" y="4" width="1" height="1" fill="#78a8f0"/><rect x="29" y="4" width="1" height="1" fill="#183060"/><rect x="30" y="4" width="1" height="1" fill="#141a38"/><rect x="31" y="4" width="1" height="1" fill="#ffffff"/><rect x="0" y="5" width="2" height="1" fill="#141a38"/><rect x="2" y="5" width="1" height="1" fill="#183060"/><rect x="3" y="5" width="1" height="1" fill="#78a8f0"/><rect x="4" y="5" width="2" height="1" fill="#f0a8d8"/><rect x="6" y="5" width="1" height="1" fill="#183060"/><rect x="7" y="5" width="18" height="1" fill="#141a38"/><rect x="25" y="5" width="1" height="1" fill="#183060"/><rect x="26" y="5" width="2" height="1" fill="#f0a8d8"/><rect x="28" y="5" width="1" height="1" fill="#78a8f0"/><rect x="29" y="5" width="1" height="1" fill="#183060"/><rect x="30" y="5" width="2" height="1" fill="#141a38"/><rect x="0" y="6" width="2" height="1" fill="#141a38"/><rect x="2" y="6" width="1" height="1" fill="#183060"/><rect x="3" y="6" width="1" height="1" fill="#78a8f0"/><rect x="4" y="6" width="3" height="1" fill="#f0a8d8"/><rect x="7" y="6" width="18" height="1" fill="#183060"/><rect x="25" y="6" width="3" height="1" fill="#f0a8d8"/><rect x="28" y="6" width="1" height="1" fill="#78a8f0"/><rect x="29" y="6" width="1" height="1" fill="#183060"/><rect x="30" y="6" width="2" height="1" fill="#141a38"/><rect x="0" y="7" width="1" height="1" fill="#141a38"/><rect x="1" y="7" width="1" height="1" fill="#183060"/><rect x="2" y="7" width="28" height="1" fill="#78a8f0"/><rect x="30" y="7" width="1" height="1" fill="#183060"/><rect x="31" y="7" width="1" height="1" fill="#141a38"/><rect x="0" y="8" width="1" height="1" fill="#141a38"/><rect x="1" y="8" width="1" height="1" fill="#183060"/><rect x="2" y="8" width="28" height="1" fill="#78a8f0"/><rect x="30" y="8" width="1" height="1" fill="#183060"/><rect x="31" y="8" width="1" height="1" fill="#141a38"/><rect x="0" y="9" width="1" height="1" fill="#ffffff"/><rect x="1" y="9" width="1" height="1" fill="#183060"/><rect x="2" y="9" width="4" height="1" fill="#78a8f0"/><rect x="6" y="9" width="6" height="1" fill="#f4f4f4"/><rect x="12" y="9" width="8" height="1" fill="#78a8f0"/><rect x="20" y="9" width="6" height="1" fill="#f4f4f4"/><rect x="26" y="9" width="4" height="1" fill="#78a8f0"/><rect x="30" y="9" width="1" height="1" fill="#183060"/><rect x="31" y="9" width="1" height="1" fill="#141a38"/><rect x="0" y="10" width="1" height="1" fill="#141a38"/><rect x="1" y="10" width="1" height="1" fill="#183060"/><rect x="2" y="10" width="2" height="1" fill="#78a8f0"/><rect x="4" y="10" width="10" height="1" fill="#f4f4f4"/><rect x="14" y="10" width="4" height="1" fill="#78a8f0"/><rect x="18" y="10" width="10" height="1" fill="#f4f4f4"/><rect x="28" y="10" width="2" height="1" fill="#78a8f0"/><rect x="30" y="10" width="1" height="1" fill="#183060"/><rect x="31" y="10" width="1" height="1" fill="#141a38"/><rect x="0" y="11" width="1" height="1" fill="#141a38"/><rect x="1" y="11" width="1" height="1" fill="#183060"/><rect x="2" y="11" width="1" height="1" fill="#78a8f0"/><rect x="3" y="11" width="12" height="1" fill="#f4f4f4"/><rect x="15" y="11" width="2" height="1" fill="#78a8f0"/><rect x="17" y="11" width="12" height="1" fill="#f4f4f4"/><rect x="29" y="11" width="1" height="1" fill="#78a8f0"/><rect x="30" y="11" width="1" height="1" fill="#183060"/><rect x="31" y="11" width="1" height="1" fill="#141a38"/><rect x="0" y="12" width="1" height="1" fill="#141a38"/><rect x="1" y="12" width="1" height="1" fill="#183060"/><rect x="2" y="12" width="1" height="1" fill="#78a8f0"/><rect x="3" y="12" width="7" height="1" fill="#000000"/><rect x="10" y="12" width="5" height="1" fill="#f4f4f4"/><rect x="15" y="12" width="2" height="1" fill="#78a8f0"/><rect x="17" y="12" width="7" height="1" fill="#000000"/><rect x="24" y="12" width="5" height="1" fill="#f4f4f4"/><rect x="29" y="12" width="1" height="1" fill="#78a8f0"/><rect x="30" y="12" width="1" height="1" fill="#183060"/><rect x="31" y="12" width="1" height="1" fill="#141a38"/><rect x="0" y="13" width="1" height="1" fill="#141a38"/><rect x="1" y="13" width="1" height="1" fill="#183060"/><rect x="2" y="13" width="1" height="1" fill="#78a8f0"/><rect x="3" y="13" width="7" height="1" fill="#000000"/><rect x="10" y="13" width="5" height="1" fill="#f4f4f4"/><rect x="15" y="13" width="2" height="1" fill="#78a8f0"/><rect x="17" y="13" width="7" height="1" fill="#000000"/><rect x="24" y="13" width="5" height="1" fill="#f4f4f4"/><rect x="29" y="13" width="1" height="1" fill="#78a8f0"/><rect x="30" y="13" width="1" height="1" fill="#183060"/><rect x="31" y="13" width="1" height="1" fill="#141a38"/><rect x="0" y="14" width="1" height="1" fill="#141a38"/><rect x="1" y="14" width="1" height="1" fill="#183060"/><rect x="2" y="14" width="1" height="1" fill="#78a8f0"/><rect x="3" y="14" width="7" height="1" fill="#000000"/><rect x="10" y="14" width="5" height="1" fill="#f4f4f4"/><rect x="15" y="14" width="2" height="1" fill="#78a8f0"/><rect x="17" y="14" width="7" height="1" fill="#000000"/><rect x="24" y="14" width="5" height="1" fill="#f4f4f4"/><rect x="29" y="14" width="1" height="1" fill="#78a8f0"/><rect x="30" y="14" width="1" height="1" fill="#183060"/><rect x="31" y="14" width="1" height="1" fill="#ffffff"/><rect x="0" y="15" width="1" height="1" fill="#141a38"/><rect x="1" y="15" width="1" height="1" fill="#183060"/><rect x="2" y="15" width="1" height="1" fill="#78a8f0"/><rect x="3" y="15" width="5" height="1" fill="#000000"/><rect x="8" y="15" width="7" height="1" fill="#f4f4f4"/><rect x="15" y="15" width="2" height="1" fill="#78a8f0"/><rect x="17" y="15" width="5" height="1" fill="#000000"/><rect x="22" y="15" width="7" height="1" fill="#f4f4f4"/><rect x="29" y="15" width="1" height="1" fill="#78a8f0"/><rect x="30" y="15" width="1" height="1" fill="#183060"/><rect x="31" y="15" width="1" height="1" fill="#141a38"/><rect x="0" y="16" width="1" height="1" fill="#141a38"/><rect x="1" y="16" width="1" height="1" fill="#183060"/><rect x="2" y="16" width="1" height="1" fill="#78a8f0"/><rect x="3" y="16" width="5" height="1" fill="#000000"/><rect x="8" y="16" width="7" height="1" fill="#f4f4f4"/><rect x="15" y="16" width="2" height="1" fill="#78a8f0"/><rect x="17" y="16" width="5" height="1" fill="#000000"/><rect x="22" y="16" width="7" height="1" fill="#f4f4f4"/><rect x="29" y="16" width="1" height="1" fill="#78a8f0"/><rect x="30" y="16" width="1" height="1" fill="#183060"/><rect x="31" y="16" width="1" height="1" fill="#141a38"/><rect x="0" y="17" width="1" height="1" fill="#141a38"/><rect x="1" y="17" width="1" height="1" fill="#183060"/><rect x="2" y="17" width="2" height="1" fill="#78a8f0"/><rect x="4" y="17" width="10" height="1" fill="#f4f4f4"/><rect x="14" y="17" width="4" height="1" fill="#78a8f0"/><rect x="18" y="17" width="10" height="1" fill="#f4f4f4"/><rect x="28" y="17" width="2" height="1" fill="#78a8f0"/><rect x="30" y="17" width="1" height="1" fill="#183060"/><rect x="31" y="17" width="1" height="1" fill="#141a38"/><rect x="0" y="18" width="1" height="1" fill="#141a38"/><rect x="1" y="18" width="1" height="1" fill="#183060"/><rect x="2" y="18" width="4" height="1" fill="#78a8f0"/><rect x="6" y="18" width="6" height="1" fill="#f4f4f4"/><rect x="12" y="18" width="8" height="1" fill="#78a8f0"/><rect x="20" y="18" width="6" height="1" fill="#f4f4f4"/><rect x="26" y="18" width="4" height="1" fill="#78a8f0"/><rect x="30" y="18" width="1" height="1" fill="#183060"/><rect x="31" y="18" width="1" height="1" fill="#141a38"/><rect x="0" y="19" width="1" height="1" fill="#141a38"/><rect x="1" y="19" width="1" height="1" fill="#183060"/><rect x="2" y="19" width="3" height="1" fill="#f0a8d8"/><rect x="5" y="19" width="22" height="1" fill="#78a8f0"/><rect x="27" y="19" width="3" height="1" fill="#f0a8d8"/><rect x="30" y="19" width="1" height="1" fill="#183060"/><rect x="31" y="19" width="1" height="1" fill="#141a38"/><rect x="0" y="20" width="1" height="1" fill="#141a38"/><rect x="1" y="20" width="1" height="1" fill="#183060"/><rect x="2" y="20" width="3" height="1" fill="#f0a8d8"/><rect x="5" y="20" width="10" height="1" fill="#78a8f0"/><rect x="15" y="20" width="2" height="1" fill="#f0a8d8"/><rect x="17" y="20" width="10" height="1" fill="#78a8f0"/><rect x="27" y="20" width="3" height="1" fill="#f0a8d8"/><rect x="30" y="20" width="1" height="1" fill="#183060"/><rect x="31" y="20" width="1" height="1" fill="#141a38"/><rect x="0" y="21" width="1" height="1" fill="#141a38"/><rect x="1" y="21" width="1" height="1" fill="#183060"/><rect x="2" y="21" width="16" height="1" fill="#78a8f0"/><rect x="18" y="21" width="1" height="1" fill="#183060"/><rect x="19" y="21" width="11" height="1" fill="#78a8f0"/><rect x="30" y="21" width="1" height="1" fill="#183060"/><rect x="31" y="21" width="1" height="1" fill="#141a38"/><rect x="0" y="22" width="2" height="1" fill="#141a38"/><rect x="2" y="22" width="1" height="1" fill="#183060"/><rect x="3" y="22" width="11" height="1" fill="#78a8f0"/><rect x="14" y="22" width="4" height="1" fill="#183060"/><rect x="18" y="22" width="11" height="1" fill="#78a8f0"/><rect x="29" y="22" width="1" height="1" fill="#183060"/><rect x="30" y="22" width="2" height="1" fill="#141a38"/><rect x="0" y="23" width="3" height="1" fill="#141a38"/><rect x="3" y="23" width="1" height="1" fill="#183060"/><rect x="4" y="23" width="1" height="1" fill="#78a8f0"/><rect x="5" y="23" width="1" height="1" fill="#f5c542"/><rect x="6" y="23" width="20" height="1" fill="#78a8f0"/><rect x="26" y="23" width="1" height="1" fill="#f5c542"/><rect x="27" y="23" width="1" height="1" fill="#78a8f0"/><rect x="28" y="23" width="1" height="1" fill="#183060"/><rect x="29" y="23" width="3" height="1" fill="#141a38"/><rect x="0" y="24" width="3" height="1" fill="#141a38"/><rect x="3" y="24" width="1" height="1" fill="#183060"/><rect x="4" y="24" width="2" height="1" fill="#78a8f0"/><rect x="6" y="24" width="1" height="1" fill="#f5c542"/><rect x="7" y="24" width="18" height="1" fill="#78a8f0"/><rect x="25" y="24" width="1" height="1" fill="#f5c542"/><rect x="26" y="24" width="2" height="1" fill="#78a8f0"/><rect x="28" y="24" width="1" height="1" fill="#183060"/><rect x="29" y="24" width="3" height="1" fill="#141a38"/><rect x="0" y="25" width="2" height="1" fill="#141a38"/><rect x="2" y="25" width="1" height="1" fill="#183060"/><rect x="3" y="25" width="4" height="1" fill="#78a8f0"/><rect x="7" y="25" width="1" height="1" fill="#f5c542"/><rect x="8" y="25" width="16" height="1" fill="#78a8f0"/><rect x="24" y="25" width="1" height="1" fill="#f5c542"/><rect x="25" y="25" width="4" height="1" fill="#78a8f0"/><rect x="29" y="25" width="1" height="1" fill="#183060"/><rect x="30" y="25" width="2" height="1" fill="#141a38"/><rect x="0" y="26" width="1" height="1" fill="#141a38"/><rect x="1" y="26" width="1" height="1" fill="#183060"/><rect x="2" y="26" width="6" height="1" fill="#78a8f0"/><rect x="8" y="26" width="1" height="1" fill="#f5c542"/><rect x="9" y="26" width="14" height="1" fill="#78a8f0"/><rect x="23" y="26" width="1" height="1" fill="#f5c542"/><rect x="24" y="26" width="6" height="1" fill="#78a8f0"/><rect x="30" y="26" width="1" height="1" fill="#183060"/><rect x="31" y="26" width="1" height="1" fill="#141a38"/><rect x="0" y="27" width="1" height="1" fill="#ffffff"/><rect x="1" y="27" width="1" height="1" fill="#183060"/><rect x="2" y="27" width="7" height="1" fill="#78a8f0"/><rect x="9" y="27" width="2" height="1" fill="#f5c542"/><rect x="11" y="27" width="2" height="1" fill="#78a8f0"/><rect x="13" y="27" width="6" height="1" fill="#d8e8ff"/><rect x="19" y="27" width="2" height="1" fill="#78a8f0"/><rect x="21" y="27" width="2" height="1" fill="#f5c542"/><rect x="23" y="27" width="7" height="1" fill="#78a8f0"/><rect x="30" y="27" width="1" height="1" fill="#183060"/><rect x="31" y="27" width="1" height="1" fill="#141a38"/><rect x="0" y="28" width="1" height="1" fill="#141a38"/><rect x="1" y="28" width="1" height="1" fill="#183060"/><rect x="2" y="28" width="9" height="1" fill="#78a8f0"/><rect x="11" y="28" width="2" height="1" fill="#f5c542"/><rect x="13" y="28" width="6" height="1" fill="#d8e8ff"/><rect x="19" y="28" width="2" height="1" fill="#f5c542"/><rect x="21" y="28" width="9" height="1" fill="#78a8f0"/><rect x="30" y="28" width="1" height="1" fill="#183060"/><rect x="31" y="28" width="1" height="1" fill="#141a38"/><rect x="0" y="29" width="1" height="1" fill="#141a38"/><rect x="1" y="29" width="1" height="1" fill="#183060"/><rect x="2" y="29" width="9" height="1" fill="#78a8f0"/><rect x="11" y="29" width="2" height="1" fill="#d8e8ff"/><rect x="13" y="29" width="6" height="1" fill="#f5c542"/><rect x="19" y="29" width="2" height="1" fill="#d8e8ff"/><rect x="21" y="29" width="9" height="1" fill="#78a8f0"/><rect x="30" y="29" width="1" height="1" fill="#183060"/><rect x="31" y="29" width="1" height="1" fill="#141a38"/><rect x="0" y="30" width="1" height="1" fill="#141a38"/><rect x="1" y="30" width="1" height="1" fill="#183060"/><rect x="2" y="30" width="9" height="1" fill="#78a8f0"/><rect x="11" y="30" width="2" height="1" fill="#d8e8ff"/><rect x="13" y="30" width="1" height="1" fill="#f5c542"/><rect x="14" y="30" width="4" height="1" fill="#7ff0ff"/><rect x="18" y="30" width="1" height="1" fill="#f5c542"/><rect x="19" y="30" width="2" height="1" fill="#d8e8ff"/><rect x="21" y="30" width="9" height="1" fill="#78a8f0"/><rect x="30" y="30" width="1" height="1" fill="#183060"/><rect x="31" y="30" width="1" height="1" fill="#141a38"/><rect x="0" y="31" width="1" height="1" fill="#141a38"/><rect x="1" y="31" width="1" height="1" fill="#183060"/><rect x="2" y="31" width="9" height="1" fill="#78a8f0"/><rect x="11" y="31" width="2" height="1" fill="#d8e8ff"/><rect x="13" y="31" width="6" height="1" fill="#f5c542"/><rect x="19" y="31" width="2" height="1" fill="#d8e8ff"/><rect x="21" y="31" width="9" height="1" fill="#78a8f0"/><rect x="30" y="31" width="1" height="1" fill="#183060"/><rect x="31" y="31" width="1" height="1" fill="#141a38"/></svg>
